<svg width="20" height="20" viewBox="0 0 20 20" fill="none" xmlns="http://www.w3.org/2000/svg">
    <path d="M15.389 7.50001C15.389 7.50001 15.4166 14.5833 15.389 15.8668C15.3614 17.1503 14.5665 17.6577 13.424 17.6785C11.2499 17.7177 9.07318 17.7202 6.89985 17.6743C5.75735 17.6535 4.96247 17.1462 4.93489 15.8627C4.90732 14.5792 4.93489 7.49584 4.93489 7.49584" stroke="#666666" stroke-linecap="round" stroke-linejoin="round"/>
    <path d="M8.33325 8.33325V14.9938M12.0833 14.9999V8.33325" stroke="#666666" stroke-linecap="round" stroke-linejoin="round"/>
    <path d="M17.2568 5.19974H3.12512M14.5338 5.19973C13.8796 5.19973 13.3163 4.73723 13.188 4.0964L12.9855 3.08307C12.8605 2.61557 12.4371 2.29223 11.9546 2.29223H8.42712C7.94462 2.29223 7.52128 2.61557 7.39628 3.08307L7.19378 4.0964C7.06545 4.73723 6.50212 5.19973 5.84795 5.19973" stroke="#666666" stroke-linecap="round" stroke-linejoin="round"/>
</svg>
