<svg width="20" height="20" viewBox="0 0 20 20" fill="none" xmlns="http://www.w3.org/2000/svg">
<path d="M8.75004 4.58325C8.75004 3.89289 9.30971 3.33325 10 3.33325C10.6904 3.33325 11.25 3.89289 11.25 4.58325C11.25 5.27361 10.6904 5.83325 10 5.83325C9.30971 5.83325 8.75004 5.27361 8.75004 4.58325Z" fill="#666666"/>
<path d="M14.1667 4.58325C14.1667 3.89289 14.7264 3.33325 15.4167 3.33325C16.107 3.33325 16.6667 3.89289 16.6667 4.58325C16.6667 5.27361 16.107 5.83325 15.4167 5.83325C14.7264 5.83325 14.1667 5.27361 14.1667 4.58325Z" fill="#666666"/>
<path d="M3.33337 4.58325C3.33337 3.89289 3.89304 3.33325 4.58337 3.33325C5.27371 3.33325 5.83337 3.89289 5.83337 4.58325C5.83337 5.27361 5.27371 5.83325 4.58337 5.83325C3.89304 5.83325 3.33337 5.27361 3.33337 4.58325Z" fill="#666666"/>
<path d="M8.75004 10.4166C8.75004 9.72625 9.30971 9.16659 10 9.16659C10.6904 9.16659 11.25 9.72625 11.25 10.4166C11.25 11.1069 10.6904 11.6666 10 11.6666C9.30971 11.6666 8.75004 11.1069 8.75004 10.4166Z" fill="#666666"/>
<path d="M14.1667 10.4166C14.1667 9.72625 14.7264 9.16659 15.4167 9.16659C16.107 9.16659 16.6667 9.72625 16.6667 10.4166C16.6667 11.1069 16.107 11.6666 15.4167 11.6666C14.7264 11.6666 14.1667 11.1069 14.1667 10.4166Z" fill="#666666"/>
<path d="M3.33337 10.4166C3.33337 9.72625 3.89304 9.16659 4.58337 9.16659C5.27371 9.16659 5.83337 9.72625 5.83337 10.4166C5.83337 11.1069 5.27371 11.6666 4.58337 11.6666C3.89304 11.6666 3.33337 11.1069 3.33337 10.4166Z" fill="#666666"/>
<path d="M8.75004 16.2499C8.75004 15.5596 9.30971 14.9999 10 14.9999C10.6904 14.9999 11.25 15.5596 11.25 16.2499C11.25 16.9403 10.6904 17.4999 10 17.4999C9.30971 17.4999 8.75004 16.9403 8.75004 16.2499Z" fill="#666666"/>
<path d="M14.1667 16.2499C14.1667 15.5596 14.7264 14.9999 15.4167 14.9999C16.107 14.9999 16.6667 15.5596 16.6667 16.2499C16.6667 16.9403 16.107 17.4999 15.4167 17.4999C14.7264 17.4999 14.1667 16.9403 14.1667 16.2499Z" fill="#666666"/>
<path d="M3.33337 16.2499C3.33337 15.5596 3.89304 14.9999 4.58337 14.9999C5.27371 14.9999 5.83337 15.5596 5.83337 16.2499C5.83337 16.9403 5.27371 17.4999 4.58337 17.4999C3.89304 17.4999 3.33337 16.9403 3.33337 16.2499Z" fill="#666666"/>
</svg>
