<svg width="24" height="24" viewBox="0 0 24 24" fill="none" xmlns="http://www.w3.org/2000/svg">
<path fill-rule="evenodd" clip-rule="evenodd" d="M0 11.8499C0 8.08624 3.05108 5.03516 6.81478 5.03516H9.03699C9.93701 5.03516 10.6666 5.76476 10.6666 6.66478C10.6666 7.56479 9.93701 8.2944 9.03699 8.2944H6.81478C4.85111 8.2944 3.25924 9.88627 3.25924 11.8499C3.25924 13.8136 4.85111 15.4055 6.81478 15.4055H9.03699C9.93701 15.4055 10.6666 16.1351 10.6666 17.0351C10.6666 17.9351 9.93701 18.6647 9.03699 18.6647H6.81478C3.05108 18.6647 0 15.6136 0 11.8499Z" fill="#7D7D7D"/>
<path fill-rule="evenodd" clip-rule="evenodd" d="M0 11.8499C0 8.08624 3.05108 5.03516 6.81478 5.03516H9.03699C9.93701 5.03516 10.6666 5.76476 10.6666 6.66478C10.6666 7.56479 9.93701 8.2944 9.03699 8.2944H6.81478C4.85111 8.2944 3.25924 9.88627 3.25924 11.8499C3.25924 13.8136 4.85111 15.4055 6.81478 15.4055H9.03699C9.93701 15.4055 10.6666 16.1351 10.6666 17.0351C10.6666 17.9351 9.93701 18.6647 9.03699 18.6647H6.81478C3.05108 18.6647 0 15.6136 0 11.8499Z" fill="#7D7D7D"/>
<path fill-rule="evenodd" clip-rule="evenodd" d="M24 11.8499C24 8.08624 20.9489 5.03516 17.1852 5.03516H14.963C14.063 5.03516 13.3334 5.76476 13.3334 6.66478C13.3334 7.56479 14.063 8.2944 14.963 8.2944H17.1852C19.1489 8.2944 20.7408 9.88627 20.7408 11.8499C20.7408 13.8136 19.1489 15.4055 17.1852 15.4055H14.963C14.063 15.4055 13.3334 16.1351 13.3334 17.0351C13.3334 17.9351 14.063 18.6647 14.963 18.6647H17.1852C20.9489 18.6647 24 15.6136 24 11.8499Z" fill="#7D7D7D"/>
<path fill-rule="evenodd" clip-rule="evenodd" d="M24 11.8499C24 8.08624 20.9489 5.03516 17.1852 5.03516H14.963C14.063 5.03516 13.3334 5.76476 13.3334 6.66478C13.3334 7.56479 14.063 8.2944 14.963 8.2944H17.1852C19.1489 8.2944 20.7408 9.88627 20.7408 11.8499C20.7408 13.8136 19.1489 15.4055 17.1852 15.4055H14.963C14.063 15.4055 13.3334 16.1351 13.3334 17.0351C13.3334 17.9351 14.063 18.6647 14.963 18.6647H17.1852C20.9489 18.6647 24 15.6136 24 11.8499Z" fill="#7D7D7D"/>
<path fill-rule="evenodd" clip-rule="evenodd" d="M17.334 11.8503C17.334 10.9503 16.6044 10.2207 15.7044 10.2207H8.297C7.39698 10.2207 6.66738 10.9503 6.66738 11.8503C6.66738 12.7503 7.39698 13.4799 8.297 13.4799H15.7044C16.6044 13.4799 17.334 12.7503 17.334 11.8503Z" fill="#7D7D7D"/>
<path fill-rule="evenodd" clip-rule="evenodd" d="M17.334 11.8503C17.334 10.9503 16.6044 10.2207 15.7044 10.2207H8.297C7.39698 10.2207 6.66738 10.9503 6.66738 11.8503C6.66738 12.7503 7.39698 13.4799 8.297 13.4799H15.7044C16.6044 13.4799 17.334 12.7503 17.334 11.8503Z" fill="#7D7D7D"/>
</svg>
