<svg width="24" height="24" viewBox="0 0 24 24" fill="none" xmlns="http://www.w3.org/2000/svg">
<path fill-rule="evenodd" clip-rule="evenodd" d="M7.20039 5.96905V7.20064V8.40243V14.6055C6.82506 14.4728 6.42115 14.4006 6.00039 14.4006C4.01217 14.4006 2.40039 16.0124 2.40039 18.0006C2.40039 19.9889 4.01217 21.6006 6.00039 21.6006C7.98732 21.6006 9.59829 19.991 9.60038 18.0045C9.60039 18.0032 9.60039 18.0019 9.60039 18.0006V9.16428L18.0004 7.637V13.4055C17.6251 13.2728 17.2212 13.2006 16.8004 13.2006C14.8122 13.2006 13.2004 14.8124 13.2004 16.8006C13.2004 18.7889 14.8122 20.4006 16.8004 20.4006C18.7886 20.4006 20.4004 18.7889 20.4004 16.8006V7.20064V4.07814C20.4004 3.20467 19.6093 2.54447 18.75 2.70072L8.34995 4.59163C7.68426 4.71266 7.20039 5.29245 7.20039 5.96905Z" fill="#7D7D7D"/>
<path fill-rule="evenodd" clip-rule="evenodd" d="M7.20039 5.96905V7.20064V8.40243V14.6055C6.82506 14.4728 6.42115 14.4006 6.00039 14.4006C4.01217 14.4006 2.40039 16.0124 2.40039 18.0006C2.40039 19.9889 4.01217 21.6006 6.00039 21.6006C7.98732 21.6006 9.59829 19.991 9.60038 18.0045C9.60039 18.0032 9.60039 18.0019 9.60039 18.0006V9.16428L18.0004 7.637V13.4055C17.6251 13.2728 17.2212 13.2006 16.8004 13.2006C14.8122 13.2006 13.2004 14.8124 13.2004 16.8006C13.2004 18.7889 14.8122 20.4006 16.8004 20.4006C18.7886 20.4006 20.4004 18.7889 20.4004 16.8006V7.20064V4.07814C20.4004 3.20467 19.6093 2.54447 18.75 2.70072L8.34995 4.59163C7.68426 4.71266 7.20039 5.29245 7.20039 5.96905Z" fill="#7D7D7D"/>
</svg>
